<?xml version="1.0" encoding="UTF-8" standalone="no"?>
<svg
   width="78.002602"
   height="32"
   viewBox="0 -8 78.002596 32.000001"
   class="css-1j8o68f"
   version="1.1"
   id="svg17"
   sodipodi:docname="logoHeader.svg"
   inkscape:version="1.1.1 (3bf5ae0d25, 2021-09-20)"
   xmlns:inkscape="http://www.inkscape.org/namespaces/inkscape"
   xmlns:sodipodi="http://sodipodi.sourceforge.net/DTD/sodipodi-0.dtd"
   xmlns:xlink="http://www.w3.org/1999/xlink"
   xmlns="http://www.w3.org/2000/svg"
   xmlns:svg="http://www.w3.org/2000/svg">
  <sodipodi:namedview
     id="namedview19"
     pagecolor="#ffffff"
     bordercolor="#666666"
     borderopacity="1.0"
     inkscape:pageshadow="2"
     inkscape:pageopacity="0.0"
     inkscape:pagecheckerboard="0"
     showgrid="false"
     width="200px"
     inkscape:zoom="42.0625"
     inkscape:cx="36.259649"
     inkscape:cy="17.910378"
     inkscape:window-width="1706"
     inkscape:window-height="1360"
     inkscape:window-x="3405"
     inkscape:window-y="0"
     inkscape:window-maximized="0"
     inkscape:current-layer="svg17"
     scale-x="1.1"
     height="61.92px"
     fit-margin-top="0"
     fit-margin-left="0"
     fit-margin-right="0"
     fit-margin-bottom="0"
     inkscape:rotation="6"
     showguides="false" />
  <defs
     id="SvgjsDefs24262">
    <inkscape:perspective
       sodipodi:type="inkscape:persp3d"
       inkscape:vp_x="0 : 16 : 1"
       inkscape:vp_y="0 : 1000 : 0"
       inkscape:vp_z="78.002596 : 16 : 1"
       inkscape:persp3d-origin="39.001298 : 10.666667 : 1"
       id="perspective381303" />
    <inkscape:path-effect
       effect="bend_path"
       id="path-effect376984"
       is_visible="true"
       lpeversion="1"
       bendpath="m 54.321673,12.996563 h 9.285923"
       prop_scale="1.1593292"
       scale_y_rel="false"
       vertical="false"
       hide_knot="false" />
    <inkscape:path-effect
       effect="bend_path"
       id="path-effect370278"
       is_visible="true"
       lpeversion="1"
       bendpath="m 20.069986,11.588782 c 25.389235,-0.65199 50.889879,-0.722728 76.542606,0"
       prop_scale="1"
       scale_y_rel="false"
       vertical="false"
       hide_knot="false"
       bendpath-nodetypes="cc" />
    <linearGradient
       id="linearGradient263577"
       inkscape:swatch="solid">
      <stop
         style="stop-color:#eeedf2;stop-opacity:1;"
         offset="0"
         id="stop263575" />
    </linearGradient>
    <linearGradient
       id="linearGradient129737"
       inkscape:swatch="solid">
      <stop
         style="stop-color:#000000;stop-opacity:1;"
         offset="0"
         id="stop129735" />
    </linearGradient>
    <linearGradient
       id="linearGradient79099"
       inkscape:swatch="solid">
      <stop
         style="stop-color:#36b37e;stop-opacity:1;"
         offset="0"
         id="stop79097" />
    </linearGradient>
    <inkscape:path-effect
       effect="simplify"
       id="path-effect28550"
       is_visible="true"
       lpeversion="1"
       steps="4"
       threshold="0.004"
       smooth_angles="120"
       helper_size="5"
       simplify_individual_paths="false"
       simplify_just_coalesce="false" />
    <inkscape:path-effect
       effect="simplify"
       id="path-effect27750"
       is_visible="true"
       lpeversion="1"
       steps="4"
       threshold="0.004"
       smooth_angles="80"
       helper_size="5"
       simplify_individual_paths="false"
       simplify_just_coalesce="false" />
    <inkscape:path-effect
       effect="skeletal"
       id="path-effect27748"
       is_visible="true"
       lpeversion="1"
       pattern="M 0,0 H 1"
       copytype="single_stretched"
       prop_scale="1.17"
       scale_y_rel="false"
       spacing="1.9"
       normal_offset="0"
       tang_offset="0"
       prop_units="false"
       vertical_pattern="false"
       hide_knot="false"
       fuse_tolerance="0" />
    <inkscape:path-effect
       effect="vonkoch"
       id="path-effect26643"
       is_visible="true"
       lpeversion="1"
       ref_path="M 0.58203125,5.8749998 H 27.009766"
       generator="M 0.58203125,19.146484 H 9.3912762 m 8.8092448,0 h 8.809245"
       similar_only="false"
       nbgenerations="1"
       drawall="true"
       maxComplexity="1000" />
    <inkscape:path-effect
       effect="vonkoch"
       id="path-effect26602"
       is_visible="true"
       lpeversion="1"
       ref_path="M 33.583984,5.8749998 H 59.994141"
       generator="m 33.583984,19.146484 h 8.803386 m 8.803385,0 h 8.803386"
       similar_only="false"
       nbgenerations="1"
       drawall="true"
       maxComplexity="1000" />
    <inkscape:path-effect
       effect="fill_between_strokes"
       id="path-effect26600"
       is_visible="true"
       lpeversion="1"
       linkedpath=""
       secondpath=""
       reversesecond="false"
       join="true"
       close="true" />
    <inkscape:path-effect
       effect="pts2ellipse"
       id="path-effect26598"
       is_visible="true"
       lpeversion="1"
       method="auto"
       gen_arc="false"
       arc_other="false"
       slice_arc="false"
       gen_isometric_frame="false"
       draw_axes="false"
       gen_perspective_frame="false"
       draw_perspective_axes="false"
       rot_axes="0"
       draw_ori_path="false" />
    <inkscape:path-effect
       effect="rough_hatches"
       id="path-effect26560"
       is_visible="false"
       lpeversion="1"
       direction="46.789062,0.8749998 , 6.6025392,0"
       dist_rdm="75;1"
       growth="0"
       do_bend="true"
       bender="46.789062,5.8749998 , 5,0"
       bottom_edge_variation="2.6542968;1"
       top_edge_variation="2.6542968;1"
       bottom_tgt_variation="0;1"
       top_tgt_variation="0;1"
       scale_bf="1"
       scale_bb="1"
       scale_tf="1"
       scale_tb="1"
       top_smth_variation="0;1"
       bottom_smth_variation="0;1"
       fat_output="true"
       stroke_width_top="1"
       stroke_width_bottom="1"
       front_thickness="1"
       back_thickness="0.25" />
    <inkscape:path-effect
       effect="offset"
       id="path-effect24973"
       is_visible="true"
       lpeversion="1"
       linejoin_type="miter"
       unit="mm"
       offset="0.48371953"
       miter_limit="4"
       attempt_force_join="false"
       update_on_knot_move="true" />
    <inkscape:path-effect
       effect="offset"
       id="path-effect24937"
       is_visible="true"
       lpeversion="1"
       linejoin_type="miter"
       unit="mm"
       offset="0.48371953"
       miter_limit="4"
       attempt_force_join="false"
       update_on_knot_move="true" />
    <inkscape:path-effect
       effect="offset"
       id="path-effect24935"
       is_visible="true"
       lpeversion="1"
       linejoin_type="miter"
       unit="mm"
       offset="0.48371953"
       miter_limit="4"
       attempt_force_join="false"
       update_on_knot_move="true" />
    <inkscape:path-effect
       effect="offset"
       id="path-effect24933"
       is_visible="true"
       lpeversion="1"
       linejoin_type="miter"
       unit="mm"
       offset="0.48371953"
       miter_limit="4"
       attempt_force_join="false"
       update_on_knot_move="true" />
    <inkscape:path-effect
       effect="fillet_chamfer"
       id="path-effect24900"
       is_visible="true"
       lpeversion="1"
       satellites_param="F,0,0,1,0,0,0,1 @ F,0,0,1,0,0,0,1 @ F,0,0,1,0,0,0,1 @ F,0,0,1,0,0,0,1"
       unit="px"
       method="auto"
       mode="F"
       radius="0"
       chamfer_steps="1"
       flexible="false"
       use_knot_distance="true"
       apply_no_radius="true"
       apply_with_radius="true"
       only_selected="false"
       hide_knots="false" />
    <inkscape:path-effect
       effect="fillet_chamfer"
       id="path-effect24898"
       is_visible="true"
       lpeversion="1"
       satellites_param="F,0,0,1,0,0,0,1 @ F,0,0,1,0,0,0,1 @ F,0,0,1,0,0,0,1 @ F,0,0,1,0,0,0,1"
       unit="px"
       method="auto"
       mode="F"
       radius="0"
       chamfer_steps="1"
       flexible="false"
       use_knot_distance="true"
       apply_no_radius="true"
       apply_with_radius="true"
       only_selected="false"
       hide_knots="false" />
    <inkscape:path-effect
       effect="fillet_chamfer"
       id="path-effect24896"
       is_visible="true"
       lpeversion="1"
       satellites_param="F,0,0,1,0,0,0,1 @ F,0,0,1,0,0,0,1 @ F,0,0,1,0,0,0,1 @ F,0,0,1,0,0,0,1"
       unit="px"
       method="auto"
       mode="F"
       radius="0"
       chamfer_steps="1"
       flexible="false"
       use_knot_distance="true"
       apply_no_radius="true"
       apply_with_radius="true"
       only_selected="false"
       hide_knots="false" />
    <inkscape:path-effect
       effect="fillet_chamfer"
       id="path-effect17557"
       is_visible="true"
       lpeversion="1"
       satellites_param="F,0,0,1,0,0,0,1 @ F,0,0,1,0,0,0,1 @ F,0,0,1,0,0,0,1 @ F,0,0,1,0,0,0,1"
       unit="px"
       method="auto"
       mode="F"
       radius="0"
       chamfer_steps="1"
       flexible="false"
       use_knot_distance="true"
       apply_no_radius="true"
       apply_with_radius="true"
       only_selected="false"
       hide_knots="false" />
    <linearGradient
       id="linearGradient3525"
       inkscape:swatch="solid">
      <stop
         style="stop-color:#403294;stop-opacity:1;"
         offset="0"
         id="stop3523" />
    </linearGradient>
    <filter
       style="color-interpolation-filters:sRGB"
       inkscape:label="Drop Shadow"
       id="filter31298"
       x="-0.046637271"
       y="-0.046465948"
       width="1.109006"
       height="1.1242795">
      <feFlood
         flood-opacity="0.498039"
         flood-color="rgb(255,255,255)"
         result="flood"
         id="feFlood31288" />
      <feComposite
         in="flood"
         in2="SourceGraphic"
         operator="out"
         result="composite1"
         id="feComposite31290" />
      <feGaussianBlur
         in="composite1"
         stdDeviation="0.00095079346"
         result="blur"
         id="feGaussianBlur31292" />
      <feOffset
         dx="0"
         dy="0"
         result="offset"
         id="feOffset31294" />
      <feComposite
         in="offset"
         in2="SourceGraphic"
         operator="atop"
         result="fbSourceGraphic"
         id="feComposite31296" />
      <feColorMatrix
         result="fbSourceGraphicAlpha"
         in="fbSourceGraphic"
         values="0 0 0 -1 0 0 0 0 -1 0 0 0 0 -1 0 0 0 0 1 0"
         id="feColorMatrix261707" />
      <feFlood
         id="feFlood261709"
         flood-opacity="1"
         flood-color="rgb(0,0,0)"
         result="flood"
         in="fbSourceGraphic" />
      <feComposite
         in2="fbSourceGraphic"
         id="feComposite261711"
         in="flood"
         operator="in"
         result="composite1" />
      <feGaussianBlur
         id="feGaussianBlur261713"
         in="composite1"
         stdDeviation="0.2"
         result="blur" />
      <feOffset
         id="feOffset261715"
         dx="0.5"
         dy="1"
         result="offset" />
      <feComposite
         in2="offset"
         id="feComposite261717"
         in="fbSourceGraphic"
         operator="over"
         result="composite2" />
    </filter>
    <filter
       style="color-interpolation-filters:sRGB"
       inkscape:label="Drop Shadow"
       id="filter31329"
       x="-0.046663079"
       y="-0.046465948"
       width="1.1090664"
       height="1.1242795">
      <feFlood
         flood-opacity="0.498039"
         flood-color="rgb(255,255,255)"
         result="flood"
         id="feFlood31319" />
      <feComposite
         in="flood"
         in2="SourceGraphic"
         operator="out"
         result="composite1"
         id="feComposite31321" />
      <feGaussianBlur
         in="composite1"
         stdDeviation="0.00095079346"
         result="blur"
         id="feGaussianBlur31323" />
      <feOffset
         dx="0"
         dy="0"
         result="offset"
         id="feOffset31325" />
      <feComposite
         in="offset"
         in2="SourceGraphic"
         operator="atop"
         result="fbSourceGraphic"
         id="feComposite31327" />
      <feColorMatrix
         result="fbSourceGraphicAlpha"
         in="fbSourceGraphic"
         values="0 0 0 -1 0 0 0 0 -1 0 0 0 0 -1 0 0 0 0 1 0"
         id="feColorMatrix261719" />
      <feFlood
         id="feFlood261721"
         flood-opacity="1"
         flood-color="rgb(0,0,0)"
         result="flood"
         in="fbSourceGraphic" />
      <feComposite
         in2="fbSourceGraphic"
         id="feComposite261723"
         in="flood"
         operator="in"
         result="composite1" />
      <feGaussianBlur
         id="feGaussianBlur261725"
         in="composite1"
         stdDeviation="0.2"
         result="blur" />
      <feOffset
         id="feOffset261727"
         dx="0.5"
         dy="1"
         result="offset" />
      <feComposite
         in2="offset"
         id="feComposite261729"
         in="fbSourceGraphic"
         operator="over"
         result="composite2" />
    </filter>
    <filter
       style="color-interpolation-filters:sRGB"
       inkscape:label="Drop Shadow"
       id="filter31360"
       x="-0.046637274"
       y="-0.046465948"
       width="1.109006"
       height="1.1242795">
      <feFlood
         flood-opacity="0.498039"
         flood-color="rgb(255,255,255)"
         result="flood"
         id="feFlood31350" />
      <feComposite
         in="flood"
         in2="SourceGraphic"
         operator="out"
         result="composite1"
         id="feComposite31352" />
      <feGaussianBlur
         in="composite1"
         stdDeviation="0.00095079346"
         result="blur"
         id="feGaussianBlur31354" />
      <feOffset
         dx="0"
         dy="0"
         result="offset"
         id="feOffset31356" />
      <feComposite
         in="offset"
         in2="SourceGraphic"
         operator="atop"
         result="fbSourceGraphic"
         id="feComposite31358" />
      <feColorMatrix
         result="fbSourceGraphicAlpha"
         in="fbSourceGraphic"
         values="0 0 0 -1 0 0 0 0 -1 0 0 0 0 -1 0 0 0 0 1 0"
         id="feColorMatrix261743" />
      <feFlood
         id="feFlood261745"
         flood-opacity="1"
         flood-color="rgb(0,0,0)"
         result="flood"
         in="fbSourceGraphic" />
      <feComposite
         in2="fbSourceGraphic"
         id="feComposite261747"
         in="flood"
         operator="in"
         result="composite1" />
      <feGaussianBlur
         id="feGaussianBlur261749"
         in="composite1"
         stdDeviation="0.2"
         result="blur" />
      <feOffset
         id="feOffset261751"
         dx="0.5"
         dy="1"
         result="offset" />
      <feComposite
         in2="offset"
         id="feComposite261753"
         in="fbSourceGraphic"
         operator="over"
         result="composite2" />
    </filter>
    <filter
       style="color-interpolation-filters:sRGB"
       inkscape:label="Drop Shadow"
       id="filter31391"
       x="-0.046663079"
       y="-0.046468794"
       width="1.1090664"
       height="1.1242871">
      <feFlood
         flood-opacity="0.498039"
         flood-color="rgb(255,255,255)"
         result="flood"
         id="feFlood31381" />
      <feComposite
         in="flood"
         in2="SourceGraphic"
         operator="out"
         result="composite1"
         id="feComposite31383" />
      <feGaussianBlur
         in="composite1"
         stdDeviation="0.00095079346"
         result="blur"
         id="feGaussianBlur31385" />
      <feOffset
         dx="0"
         dy="0"
         result="offset"
         id="feOffset31387" />
      <feComposite
         in="offset"
         in2="SourceGraphic"
         operator="atop"
         result="fbSourceGraphic"
         id="feComposite31389" />
      <feColorMatrix
         result="fbSourceGraphicAlpha"
         in="fbSourceGraphic"
         values="0 0 0 -1 0 0 0 0 -1 0 0 0 0 -1 0 0 0 0 1 0"
         id="feColorMatrix261731" />
      <feFlood
         id="feFlood261733"
         flood-opacity="1"
         flood-color="rgb(0,0,0)"
         result="flood"
         in="fbSourceGraphic" />
      <feComposite
         in2="fbSourceGraphic"
         id="feComposite261735"
         in="flood"
         operator="in"
         result="composite1" />
      <feGaussianBlur
         id="feGaussianBlur261737"
         in="composite1"
         stdDeviation="0.2"
         result="blur" />
      <feOffset
         id="feOffset261739"
         dx="0.5"
         dy="1"
         result="offset" />
      <feComposite
         in2="offset"
         id="feComposite261741"
         in="fbSourceGraphic"
         operator="over"
         result="composite2" />
    </filter>
    <filter
       style="color-interpolation-filters:sRGB"
       inkscape:label="Drop Shadow"
       id="filter261765"
       x="-0.075065883"
       y="-0.049064249"
       width="1.2283254"
       height="1.2003457">
      <feFlood
         flood-opacity="1"
         flood-color="rgb(0,0,0)"
         result="flood"
         id="feFlood261755" />
      <feComposite
         in="flood"
         in2="SourceGraphic"
         operator="in"
         result="composite1"
         id="feComposite261757" />
      <feGaussianBlur
         in="composite1"
         stdDeviation="0.2"
         result="blur"
         id="feGaussianBlur261759" />
      <feOffset
         dx="0.5"
         dy="1"
         result="offset"
         id="feOffset261761" />
      <feComposite
         in="SourceGraphic"
         in2="offset"
         operator="over"
         result="composite2"
         id="feComposite261763" />
    </filter>
    <radialGradient
       inkscape:collect="always"
       xlink:href="#linearGradient263577"
       id="radialGradient381949"
       gradientUnits="userSpaceOnUse"
       gradientTransform="matrix(1,0,0,0.20610623,0,9.5972076)"
       cx="58.596664"
       cy="12.088781"
       fx="58.596664"
       fy="12.088781"
       r="38.370796" />
    <radialGradient
       inkscape:collect="always"
       xlink:href="#linearGradient263577"
       id="radialGradient381951"
       gradientUnits="userSpaceOnUse"
       gradientTransform="matrix(1,0,0,0.20610623,0,9.5972076)"
       cx="58.596664"
       cy="12.088781"
       fx="58.596664"
       fy="12.088781"
       r="38.370796" />
    <radialGradient
       inkscape:collect="always"
       xlink:href="#linearGradient263577"
       id="radialGradient381953"
       gradientUnits="userSpaceOnUse"
       gradientTransform="matrix(1,0,0,0.20610623,0,9.5972076)"
       cx="58.596664"
       cy="12.088781"
       fx="58.596664"
       fy="12.088781"
       r="38.370796" />
    <radialGradient
       inkscape:collect="always"
       xlink:href="#linearGradient263577"
       id="radialGradient381955"
       gradientUnits="userSpaceOnUse"
       gradientTransform="matrix(1,0,0,0.20610623,0,9.5972076)"
       cx="58.596664"
       cy="12.088781"
       fx="58.596664"
       fy="12.088781"
       r="38.370796" />
    <radialGradient
       inkscape:collect="always"
       xlink:href="#linearGradient263577"
       id="radialGradient381957"
       gradientUnits="userSpaceOnUse"
       gradientTransform="matrix(1,0,0,0.20610623,0,9.5972076)"
       cx="58.596664"
       cy="12.088781"
       fx="58.596664"
       fy="12.088781"
       r="38.370796" />
    <radialGradient
       inkscape:collect="always"
       xlink:href="#linearGradient263577"
       id="radialGradient381959"
       gradientUnits="userSpaceOnUse"
       gradientTransform="matrix(1,0,0,0.20610623,0,9.5972076)"
       cx="58.596664"
       cy="12.088781"
       fx="58.596664"
       fy="12.088781"
       r="38.370796" />
    <radialGradient
       inkscape:collect="always"
       xlink:href="#linearGradient263577"
       id="radialGradient381961"
       gradientUnits="userSpaceOnUse"
       gradientTransform="matrix(1,0,0,0.20610623,0,9.5972076)"
       cx="58.596664"
       cy="12.088781"
       fx="58.596664"
       fy="12.088781"
       r="38.370796" />
    <radialGradient
       inkscape:collect="always"
       xlink:href="#linearGradient263577"
       id="radialGradient381963"
       gradientUnits="userSpaceOnUse"
       gradientTransform="matrix(1,0,0,0.20610623,0,9.5972076)"
       cx="58.596664"
       cy="12.088781"
       fx="58.596664"
       fy="12.088781"
       r="38.370796" />
  </defs>
  <path
     d="m 26.110581,18.195031 c -0.764529,0.01686 -1.529058,0.03427 -2.293589,0.05221 L 23.560918,7.3445886 c -1.232689,0.028962 -2.465317,0.059324 -3.69788,0.091064 l -0.05001,-1.942924 C 23.05155,5.4093168 26.2906,5.3354125 29.530103,5.2714011 l 0.03839,1.9432202 c -1.232876,0.024359 -2.465699,0.050152 -3.698463,0.077358 z"
     style="font-weight:600;font-size:17.996px;line-height:1;font-family:'Noto Sans';-inkscape-font-specification:'Noto Sans Semi-Bold';text-align:center;letter-spacing:-1.25px;text-anchor:middle;fill:url(#radialGradient381949);stroke-width:0.671986;filter:url(#filter261765)"
     id="path370003"
     transform="matrix(1,-3.4191698e-5,0,1,-19.589986,-4.0867773)" />
  <path
     d="m 32.536539,8.1307195 c 1.262283,-0.022581 2.222829,0.2377031 2.880484,0.7790617 0.66982,0.5412879 1.012935,1.3879238 1.030685,2.5395818 l 0.100948,6.549891 c -0.531561,0.0082 -1.063124,0.01666 -1.59469,0.0254 -0.156715,-0.447393 -0.31356,-0.894761 -0.470535,-1.342106 -0.02391,4e-4 -0.04782,8.01e-4 -0.07173,0.0012 -0.409591,0.534838 -0.844985,0.932293 -1.306463,1.192415 -0.46172,0.248143 -1.092503,0.379428 -1.892769,0.394508 -0.871903,0.01643 -1.599246,-0.215142 -2.182799,-0.695354 -0.583466,-0.480141 -0.88642,-1.235864 -0.907841,-2.267404 -0.02092,-1.007574 0.32855,-1.770962 1.049471,-2.289432 0.732802,-0.518637 1.848666,-0.822729 3.346443,-0.909602 0.563255,-0.02811 1.126534,-0.05591 1.689837,-0.08341 l -0.0082,-0.485832 c -0.01032,-0.6118 -0.167667,-1.047108 -0.472354,-1.305889 -0.304859,-0.2707491 -0.727603,-0.4014239 -1.267987,-0.3917201 -0.492344,0.00884 -0.965372,0.08956 -1.418902,0.2421141 -0.441523,0.152324 -0.882468,0.328824 -1.322774,0.529497 -0.250446,-0.523059 -0.50113,-1.0460588 -0.752052,-1.5689987 0.475484,-0.2615813 1.018268,-0.4763126 1.628262,-0.6439746 0.622015,-0.1678922 1.269762,-0.2579092 1.942964,-0.2699523 -1e-6,7e-7 -2e-6,1.4e-6 -4e-6,2.1e-6 z m 0.50924,5.3547085 c -0.993728,0.05351 -1.679452,0.240491 -2.056732,0.559581 -0.377563,0.307142 -0.5612,0.718715 -0.551243,1.234512 0.009,0.467812 0.147136,0.80114 0.414111,1.000037 0.278728,0.186689 0.639219,0.275881 1.081632,0.267756 0.657632,-0.01208 1.210266,-0.207813 1.658373,-0.587549 0.447853,-0.391694 0.66582,-0.959327 0.653279,-1.703061 l -0.01396,-0.827714 c -0.395165,0.01866 -0.790319,0.03748 -1.185463,0.05644 z"
     style="font-weight:600;font-size:17.996px;line-height:1;font-family:'Noto Sans';-inkscape-font-specification:'Noto Sans Semi-Bold';text-align:center;letter-spacing:-1.25px;text-anchor:middle;fill:url(#radialGradient381951);stroke-width:0.671986;filter:url(#filter261765)"
     id="path370005"
     transform="matrix(1,-3.4191698e-5,0,1,-19.589986,-4.0867773)" />
  <path
     d="m 44.71821,15.069703 c 0.0098,0.983748 -0.335531,1.736959 -1.035001,2.26037 -0.68771,0.511333 -1.681863,0.774287 -2.983671,0.790813 -0.68079,0.0086 -1.266593,-0.03146 -1.757678,-0.120654 -0.479114,-0.08936 -0.947129,-0.232631 -1.404175,-0.429864 l -0.02843,-1.925399 c 0.481902,0.220865 1.010899,0.405257 1.587063,0.553328 0.588123,0.147907 1.139113,0.218668 1.653261,0.212166 0.621755,-0.0079 1.068952,-0.109154 1.341754,-0.304334 0.272793,-0.195174 0.407422,-0.454668 0.403704,-0.778584 -0.0022,-0.191947 -0.05798,-0.359285 -0.167368,-0.501999 -0.109522,-0.154699 -0.326959,-0.320171 -0.652388,-0.496232 -0.313371,-0.176157 -0.783284,-0.392505 -1.409477,-0.648327 -0.626006,-0.231879 -1.150497,-0.470666 -1.573485,-0.716746 -0.411146,-0.258229 -0.727224,-0.559626 -0.94814,-0.904376 -0.208912,-0.344904 -0.317564,-0.793275 -0.325717,-1.34509 -0.01294,-0.8757149 0.319433,-1.5406442 0.998234,-1.9942195 0.690538,-0.465667 1.613426,-0.7062661 2.767674,-0.7204479 0.601165,-0.00739 1.167004,0.046011 1.697318,0.1600708 0.542338,0.1139268 1.085223,0.2881298 1.62846,0.5226125 -0.23473,0.560281 -0.469195,1.1206175 -0.703391,1.6810091 -0.458204,-0.187127 -0.904263,-0.344182 -1.338073,-0.4711946 -0.433813,-0.1270129 -0.87899,-0.1877187 -1.335362,-0.1820894 -0.996948,0.012297 -1.491446,0.301219 -1.483938,0.864931 0.0027,0.20394 0.06505,0.377089 0.186932,0.519461 0.133896,0.142225 0.357879,0.295245 0.671907,0.459222 0.325976,0.151875 0.783918,0.337992 1.374287,0.559005 0.578247,0.221106 1.078471,0.455476 1.500675,0.702842 0.42209,0.23538 0.748731,0.53195 0.979988,0.889528 0.23127,0.357598 0.349522,0.81233 0.355037,1.364198 z"
     style="font-weight:600;font-size:17.996px;line-height:1;font-family:'Noto Sans';-inkscape-font-specification:'Noto Sans Semi-Bold';text-align:center;letter-spacing:-1.25px;text-anchor:middle;fill:url(#radialGradient381953);stroke-width:0.671986;filter:url(#filter261765)"
     id="path370007"
     transform="matrix(1,-3.4191698e-5,0,1,-19.589986,-4.0867773)" />
  <path
     d="m 47.852927,10.68645 c 0.0025,0.311929 -0.007,0.641936 -0.0282,0.990045 -0.02124,0.348106 -0.04262,0.678216 -0.06411,0.990331 0.01798,-1.43e-4 0.03596,-2.85e-4 0.05394,-4.27e-4 0.142118,-0.21707 0.320048,-0.464438 0.533816,-0.741984 0.213776,-0.277556 0.415917,-0.524993 0.606346,-0.742303 0.952547,-1.032585 1.907106,-2.0642417 2.863707,-3.0949545 0.859679,-0.00442 1.71937,-0.00808 2.57907,-0.010975 -1.29985,1.4080785 -2.595877,2.8179175 -3.888159,4.2294755 1.395898,1.839183 2.786548,3.680357 4.171822,5.523527 -0.877784,0.0028 -1.755587,0.0064 -2.633407,0.01084 -1.010209,-1.386639 -2.023332,-2.772226 -3.039318,-4.156764 -0.375085,0.314602 -0.74993,0.629348 -1.124537,0.944236 l 0.02545,3.239222 c -0.746487,0.0059 -1.492985,0.01231 -2.239493,0.01931 L 45.541668,4.2094702 c 0.753387,-0.00706 1.506794,-0.013544 2.260219,-0.019458 0.01701,2.1654793 0.03403,4.3309587 0.05104,6.4964378 z"
     style="font-weight:600;font-size:17.996px;line-height:1;font-family:'Noto Sans';-inkscape-font-specification:'Noto Sans Semi-Bold';text-align:center;letter-spacing:-1.25px;text-anchor:middle;fill:url(#radialGradient381955);stroke-width:0.672;filter:url(#filter261765);stroke-miterlimit:4;stroke-dasharray:none;paint-order:stroke fill markers"
     id="path370009"
     transform="matrix(1,-3.4191698e-5,0,1,-19.589986,-4.0867773)" />
  <path
     d="m 63.496039,12.466752 c 0.06558,1.877742 -0.302447,3.330309 -1.100483,4.357513 -0.798768,1.0136 -1.91176,1.519298 -3.341375,1.519486 -0.881663,1.16e-4 -1.676803,-0.228453 -2.386415,-0.686168 -0.709569,-0.457683 -1.279236,-1.12381 -1.709004,-1.998774 -0.42974,-0.874896 -0.67112,-1.938199 -0.723025,-3.189771 -0.07786,-1.87759 0.275138,-3.3182166 1.062457,-4.3220611 0.798519,-1.0174906 1.919782,-1.5277365 3.361531,-1.5283017 0.901028,-3.533e-4 1.708728,0.2296769 2.422073,0.6896029 0.712878,0.446045 1.282773,1.1079437 1.709622,1.9852952 0.426389,0.8635117 0.660885,1.9211827 0.704619,3.1731787 z m -6.945193,-0.0039 c 0.04767,1.196009 0.263843,2.120674 0.647735,2.773756 0.395896,0.653176 0.999185,0.979262 1.81054,0.979132 0.811344,-1.31e-4 1.383815,-0.326411 1.717967,-0.979803 0.346022,-0.653247 0.497678,-1.57812 0.453913,-2.77426 -0.04377,-1.196293 -0.262963,-2.11445 -0.658386,-2.7547071 C 60.139247,9.0667967 59.53336,8.746416 58.705606,8.7467167 57.90184,8.7470086 57.326561,9.0677746 56.980319,9.7081028 56.645995,10.348538 56.503169,11.266652 56.550846,12.462812 Z"
     style="font-weight:600;font-size:17.996px;line-height:1;font-family:'Noto Sans';-inkscape-font-specification:'Noto Sans Semi-Bold';text-align:center;letter-spacing:-1.25px;text-anchor:middle;fill:#6c23ff;stroke-width:0.671986;filter:url(#filter261765);fill-opacity:1"
     id="path370011"
     transform="matrix(1,-3.4191698e-5,0,1,-19.589986,-4.0867773)" />
  <path
     d="m 66.593972,17.841214 c -1.212594,-3.257698 -2.433971,-6.513804 -3.663955,-9.7683069 0.799626,0.0021 1.599257,0.00489 2.39889,0.00836 0.641172,1.8803712 1.279713,3.7611819 1.915598,5.6424289 0.117756,0.348606 0.223235,0.733136 0.316446,1.153606 0.105172,0.420522 0.168776,0.774872 0.190923,1.062927 0.02391,1.47e-4 0.04782,2.93e-4 0.07173,4.42e-4 0.03772,-0.299686 0.111671,-0.653186 0.22194,-1.060384 0.110351,-0.419214 0.226554,-0.802377 0.348601,-1.149502 0.65904,-1.87326 1.320733,-3.7460413 1.985105,-5.6183339 0.799643,0.00641 1.599285,0.013517 2.398928,0.021335 -1.270319,3.2389599 -2.531719,6.4797159 -3.784367,9.7222119 -0.799925,-0.0056 -1.599873,-0.01056 -2.399842,-0.01479 z"
     style="font-weight:600;font-size:17.996px;line-height:1;font-family:'Noto Sans';-inkscape-font-specification:'Noto Sans Semi-Bold';text-align:center;letter-spacing:-1.25px;text-anchor:middle;fill:url(#radialGradient381957);stroke-width:0.671986;filter:url(#filter261765)"
     id="path370013"
     transform="matrix(1,-3.4191698e-5,0,1,-19.589986,-4.0867773)" />
  <path
     d="m 76.884627,8.0002197 c 1.262792,0.016199 2.215171,0.306112 2.855848,0.86759 0.652869,0.561807 0.969449,1.4186843 0.951327,2.5702963 l -0.103071,6.549604 c -0.53113,-0.0084 -1.062272,-0.01639 -1.593427,-0.02411 -0.142668,-0.45201 -0.28549,-0.903997 -0.428466,-1.355961 -0.0239,-3.39e-4 -0.04779,-6.77e-4 -0.07169,-10e-4 -0.425651,0.52191 -0.872757,0.905743 -1.341651,1.151548 -0.468773,0.233828 -1.10275,0.345689 -1.902447,0.33634 -0.871279,-0.01019 -1.590637,-0.26371 -2.158957,-0.761354 -0.568222,-0.497557 -0.848072,-1.262056 -0.838338,-2.293738 0.0095,-1.007715 0.381731,-1.760206 1.117881,-2.256569 0.748009,-0.496158 1.87251,-0.766215 3.372055,-0.807072 0.563781,-0.0108 1.127579,-0.02125 1.691394,-0.03134 l 0.0068,-0.485835 c 0.0086,-0.611805 -0.135239,-1.051747 -0.43183,-1.319795 C 77.713687,9.8588052 77.295106,9.7151718 76.754607,9.7082825 76.26216,9.7020057 75.786815,9.7682037 75.328791,9.9068321 74.882775,10.045597 74.43662,10.208577 73.990397,10.395772 73.755946,9.8653622 73.521213,9.3350133 73.286198,8.8047254 73.7695,8.5576844 74.31871,8.3595485 74.933715,8.2105718 c 0.62703,-0.1488403 1.277445,-0.2189934 1.950916,-0.2103541 -10e-7,7e-7 -3e-6,1.3e-6 -4e-6,2e-6 z m 0.344459,5.3676303 c -0.99462,0.02292 -1.685563,0.18889 -2.072266,0.4963 -0.38663,0.295468 -0.582632,0.701251 -0.588388,1.217095 -0.0052,0.467853 0.122603,0.80522 0.383229,1.012154 0.272742,0.195093 0.630111,0.295241 1.072287,0.300661 0.657279,0.0081 1.215305,-0.170591 1.674643,-0.536333 0.459445,-0.377693 0.694748,-0.938302 0.705184,-1.682039 l 0.01162,-0.827718 c -0.395442,0.0064 -0.790876,0.01308 -1.186304,0.01988 z"
     style="font-weight:600;font-size:17.996px;line-height:1;font-family:'Noto Sans';-inkscape-font-specification:'Noto Sans Semi-Bold';text-align:center;letter-spacing:-1.25px;text-anchor:middle;fill:url(#radialGradient381959);stroke-width:0.671986;filter:url(#filter261765)"
     id="path370015"
     transform="matrix(1,-3.4191698e-5,0,1,-19.589986,-4.0867773)" />
  <path
     d="m 85.965645,16.445529 c 0.274822,0.0055 0.544142,-0.0131 0.808006,-0.05569 0.276062,-0.05434 0.528376,-0.115079 0.75696,-0.18226 l -0.03564,1.691221 c -0.240985,0.102922 -0.553109,0.186394 -0.936432,0.250591 -0.383558,0.07619 -0.784091,0.110207 -1.201714,0.102097 -0.548875,-0.01066 -1.048299,-0.110003 -1.498555,-0.298209 -0.450033,-0.2002 -0.802418,-0.530379 -1.057255,-0.990778 -0.254811,-0.460352 -0.375484,-1.098421 -0.361523,-1.914067 l 0.08685,-5.0740343 c -0.438317,-0.0075 -0.876637,-0.014785 -1.314959,-0.021848 l 0.01595,-0.9896319 c 0.484968,-0.2561557 0.970222,-0.5120432 1.455766,-0.7676608 0.252374,-0.6855914 0.505127,-1.3711101 0.758261,-2.0565557 0.475739,0.00845 0.951478,0.017161 1.427217,0.026132 l -0.04038,2.1411035 c 0.925865,0.017459 1.851722,0.035908 2.777569,0.055354 l -0.0359,1.7092152 c -0.924619,-0.01942 -1.849253,-0.03785 -2.773901,-0.05528 l -0.09535,5.055884 c -0.0086,0.455802 0.104557,0.79992 0.339222,1.032383 0.234913,0.220487 0.543462,0.334444 0.925816,0.342039 z"
     style="font-weight:600;font-size:17.996px;line-height:1;font-family:'Noto Sans';-inkscape-font-specification:'Noto Sans Semi-Bold';text-align:center;letter-spacing:-1.25px;text-anchor:middle;fill:url(#radialGradient381961);stroke-width:0.671986;filter:url(#filter261765)"
     id="path370017"
     transform="matrix(1,-3.4191698e-5,0,1,-19.589986,-4.0867773)" />
  <path
     d="m 92.345245,8.2895871 c 1.310831,0.032386 2.335043,0.4497079 3.070679,1.2497615 0.747828,0.8005734 1.100909,1.8966544 1.061825,3.2878524 l -0.03234,1.15129 c -2.142819,-0.06021 -4.285818,-0.114894 -6.428974,-0.164158 0.0035,0.888081 0.233041,1.583399 0.68758,2.086079 0.454889,0.490762 1.094085,0.746039 1.918307,0.766732 0.621181,0.0156 1.184112,-0.02982 1.689056,-0.136477 0.505256,-0.118652 1.024023,-0.290649 1.556531,-0.515945 l -0.05028,1.816898 c -0.48367,0.214642 -0.983332,0.369107 -1.499176,0.463451 -0.515874,0.09435 -1.131513,0.132341 -1.847286,0.114429 -0.942397,-0.02358 -1.778993,-0.223478 -2.510717,-0.60034 -0.719464,-0.388554 -1.280297,-0.958903 -1.682497,-1.71161 -0.390209,-0.752375 -0.574223,-1.680341 -0.55085,-2.783778 0.03532,-1.667326 0.475668,-2.929884 1.324169,-3.7872975 0.848267,-0.8571778 1.947063,-1.2701652 3.29398,-1.2368874 z m -0.04135,1.6731006 C 91.6914,9.9475527 91.188181,10.13357 90.794746,10.52032 c -0.381193,0.375084 -0.610369,0.945787 -0.687985,1.712045 1.396581,0.03216 2.793108,0.06662 4.189574,0.1034 0.0057,-0.671945 -0.153619,-1.228193 -0.478522,-1.668692 C 93.50526,10.214944 93.000474,9.9798999 92.303898,9.9626877 Z"
     style="font-weight:600;font-size:17.996px;line-height:1;font-family:'Noto Sans';-inkscape-font-specification:'Noto Sans Semi-Bold';text-align:center;letter-spacing:-1.25px;text-anchor:middle;fill:url(#radialGradient381963);stroke-width:0.671986;filter:url(#filter261765)"
     id="path370019"
     transform="matrix(1,-3.4191698e-5,0,1,-19.589986,-4.0867773)" />
</svg>
